<svg width="0" height="0" class="hidden">
  <symbol version="1.1" xmlns="http://www.w3.org/2000/svg" xmlns:xlink="http://www.w3.org/1999/xlink" viewBox="0 0 24 24" id="Calling">
    <title>Iconly/Light/Calling</title>
    <g id="Iconly/Light/Calling" stroke="#ff5722" stroke-width="1.5" fill="none" fill-rule="evenodd" stroke-linecap="round" stroke-linejoin="round">
      <g id="Calling" transform="translate(2.000000, 2.500000)" stroke="#ff5722" stroke-width="1.5">
        <path d="M12.353,1.95399252e-14 C16.054,0.411 18.978,3.331 19.393,7.032" id="Stroke-1"></path>
        <path d="M12.353,3.543 C14.124,3.887 15.508,5.272 15.853,7.043" id="Stroke-3"></path>
        <path d="M9.03152183,9.97238745 C13.0205087,13.9603606 13.9254376,9.34671782 16.46525,11.8848116 C18.9138181,14.3327574 20.322201,14.8232052 17.2188207,17.9247236 C16.8302273,18.2370218 14.3612634,21.9942591 5.68446558,13.3196663 C-2.9934057,4.64400029 0.761566311,2.17244427 1.07394391,1.78394958 C4.18376493,-1.32615434 4.66682308,0.0893829491 7.11539117,2.53732879 C9.65413011,5.07649576 5.04253498,5.9844143 9.03152183,9.97238745 Z" id="Stroke-5"></path>
      </g>
    </g>
  </symbol>
  <symbol version="1.1" xmlns="http://www.w3.org/2000/svg" xmlns:xlink="http://www.w3.org/1999/xlink" viewBox="0 0 24 24" id="Location">
    <title>Iconly/Light/Location</title>
    <g id="Iconly/Light/Location" stroke="#ff5722" stroke-width="1.5" fill="none" fill-rule="evenodd" stroke-linecap="round" stroke-linejoin="round">
      <g id="Location" transform="translate(4.500000, 3.000000)" stroke="#ff5722" stroke-width="1.5">
        <path d="M10,7.50050782 C10,6.11923624 8.88076376,5 7.50050782,5 C6.11923624,5 5,6.11923624 5,7.50050782 C5,8.88076376 6.11923624,10 7.50050782,10 C8.88076376,10 10,8.88076376 10,7.50050782 Z" id="Stroke-1"></path>
        <path d="M7.49951162,18 C6.30103536,18 0,12.8983747 0,7.5632901 C0,3.38663602 3.357101,0 7.49951162,0 C11.6419223,0 15,3.38663602 15,7.5632901 C15,12.8983747 8.69798789,18 7.49951162,18 Z" id="Stroke-3"></path>
      </g>
    </g>
  </symbol>
  <symbol version="1.1" xmlns="http://www.w3.org/2000/svg" xmlns:xlink="http://www.w3.org/1999/xlink" viewBox="0 0 24 24" id="Message">
    <title>Iconly/Light/Message</title>
    <g id="Iconly/Light/Message" stroke="#ff5722" stroke-width="1.5" fill="none" fill-rule="evenodd" stroke-linecap="round" stroke-linejoin="round">
      <g id="Message" transform="translate(2.000000, 3.000000)" stroke="#ff5722" stroke-width="1.5">
        <path d="M15.9026143,5.8511436 L11.4593272,9.46418164 C10.6198313,10.1301843 9.4387043,10.1301843 8.59920842,9.46418164 L4.11842516,5.8511436" id="Stroke-1"></path>
        <path d="M14.9088637,17.9999789 C17.9502135,18.0083748 20,15.5095497 20,12.4383622 L20,5.57001263 C20,2.49882508 17.9502135,5.32907052e-15 14.9088637,5.32907052e-15 L5.09113634,5.32907052e-15 C2.04978648,5.32907052e-15 1.77635684e-15,2.49882508 1.77635684e-15,5.57001263 L1.77635684e-15,12.4383622 C1.77635684e-15,15.5095497 2.04978648,18.0083748 5.09113634,17.9999789 L14.9088637,17.9999789 Z" id="Stroke-3"></path>
      </g>
    </g>
  </symbol>
  <symbol xmlns="http://www.w3.org/2000/svg" viewBox="0 0 48 48" id="linkedin">
    <path fill="#0288d1" d="M24 4A20 20 0 1 0 24 44A20 20 0 1 0 24 4Z"></path>
    <path fill="#fff" d="M14 19H18V34H14zM15.988 17h-.022C14.772 17 14 16.11 14 14.999 14 13.864 14.796 13 16.011 13c1.217 0 1.966.864 1.989 1.999C18 16.11 17.228 17 15.988 17zM35 24.5c0-3.038-2.462-5.5-5.5-5.5-1.862 0-3.505.928-4.5 2.344V19h-4v15h4v-8c0-1.657 1.343-3 3-3s3 1.343 3 3v8h4C35 34 35 24.921 35 24.5z"></path>
  </symbol>
  <symbol xmlns="http://www.w3.org/2000/svg" viewBox="0 0 48 48" id="telegram">
    <path fill="#29b6f6" d="M24 4A20 20 0 1 0 24 44A20 20 0 1 0 24 4Z"></path>
    <path fill="#fff" d="M33.95,15l-3.746,19.126c0,0-0.161,0.874-1.245,0.874c-0.576,0-0.873-0.274-0.873-0.274l-8.114-6.733 l-3.97-2.001l-5.095-1.355c0,0-0.907-0.262-0.907-1.012c0-0.625,0.933-0.923,0.933-0.923l21.316-8.468 c-0.001-0.001,0.651-0.235,1.126-0.234C33.667,14,34,14.125,34,14.5C34,14.75,33.95,15,33.95,15z"></path>
    <path fill="#b0bec5" d="M23,30.505l-3.426,3.374c0,0-0.149,0.115-0.348,0.12c-0.069,0.002-0.143-0.009-0.219-0.043 l0.964-5.965L23,30.505z"></path>
    <path fill="#cfd8dc" d="M29.897,18.196c-0.169-0.22-0.481-0.26-0.701-0.093L16,26c0,0,2.106,5.892,2.427,6.912 c0.322,1.021,0.58,1.045,0.58,1.045l0.964-5.965l9.832-9.096C30.023,18.729,30.064,18.416,29.897,18.196z"></path>
  </symbol>
  <symbol xmlns="http://www.w3.org/2000/svg" viewBox="0 0 48 48" id="twitter">
    <path fill="#03A9F4" d="M42,12.429c-1.323,0.586-2.746,0.977-4.247,1.162c1.526-0.906,2.7-2.351,3.251-4.058c-1.428,0.837-3.01,1.452-4.693,1.776C34.967,9.884,33.05,9,30.926,9c-4.08,0-7.387,3.278-7.387,7.32c0,0.572,0.067,1.129,0.193,1.67c-6.138-0.308-11.582-3.226-15.224-7.654c-0.64,1.082-1,2.349-1,3.686c0,2.541,1.301,4.778,3.285,6.096c-1.211-0.037-2.351-0.374-3.349-0.914c0,0.022,0,0.055,0,0.086c0,3.551,2.547,6.508,5.923,7.181c-0.617,0.169-1.269,0.263-1.941,0.263c-0.477,0-0.942-0.054-1.392-0.135c0.94,2.902,3.667,5.023,6.898,5.086c-2.528,1.96-5.712,3.134-9.174,3.134c-0.598,0-1.183-0.034-1.761-0.104C9.268,36.786,13.152,38,17.321,38c13.585,0,21.017-11.156,21.017-20.834c0-0.317-0.01-0.633-0.025-0.945C39.763,15.197,41.013,13.905,42,12.429"></path>
  </symbol>
</svg>






  




<svg class="icon">
  <use xlink:href="/assets/image/svg-sprite.svg#Calling"></use>
</svg>
<svg class="icon">
  <use xlink:href="/assets/image/svg-sprite.svg#Location"></use>
</svg>
<svg class="icon">
  <use xlink:href="/assets/image/svg-sprite.svg#Message"></use>
</svg>
<svg class="icon">
  <use xlink:href="/assets/image/svg-sprite.svg#icons8-linkedin-circled"></use>
</svg>
<svg class="icon">
  <use xlink:href="/assets/image/svg-sprite.svg#icons8-telegram-app"></use>
</svg>
<svg class="icon">
  <use xlink:href="/assets/image/svg-sprite.svg#icons8-twitter"></use>
</svg>









